# xmcd
#
# Track frame offsets: 
#        150
#        17715
#        38880
#
# Disc length: 722 seconds
#
# Revision: 2
# Processed by: cddbd v1.5.2PL0 Copyright (c) Steve Scherf et al.
# Submitted via: ExactAudioCopy v0.99pb4
#
DISCID=1b02d003
DTITLE=Red Hot Chili Peppers - The Zephyr Song
DYEAR=2002
DGENRE=Rock
TTITLE0=The Zephyr Song
TTITLE1=Body Of Water
TTITLE2=Someone
EXTD=YEAR: 2002
EXTT0=
EXTT1=
EXTT2=
PLAYORDER=
